<svg width="16" height="16" viewBox="0 0 16 16" fill="none" xmlns="http://www.w3.org/2000/svg">
<path d="M9.66663 12C9.9444 12 10.1806 11.9027 10.3753 11.708C10.57 11.5133 10.6671 11.2773 10.6666 11C10.6666 10.7222 10.5693 10.486 10.3746 10.2913C10.18 10.0967 9.94396 9.99955 9.66663 10C9.38885 10 9.15263 10.0973 8.95796 10.292C8.76329 10.4867 8.66618 10.7227 8.66663 11C8.66663 11.2778 8.76396 11.514 8.95863 11.7087C9.15329 11.9033 9.38929 12.0004 9.66663 12ZM6.29996 11.9667L10.6333 7.63333L9.69996 6.7L5.36663 11.0333L6.29996 11.9667ZM6.33329 8.66667C6.61107 8.66667 6.84729 8.56933 7.04196 8.37467C7.23663 8.18 7.33374 7.944 7.33329 7.66667C7.33329 7.38889 7.23596 7.15267 7.04129 6.958C6.84663 6.76333 6.61063 6.66622 6.33329 6.66667C6.05552 6.66667 5.81929 6.764 5.62463 6.95866C5.42996 7.15333 5.33285 7.38933 5.33329 7.66667C5.33329 7.94444 5.43063 8.18067 5.62529 8.37533C5.81996 8.57 6.05596 8.66711 6.33329 8.66667ZM7.99996 14.6667C6.47774 14.6667 5.20818 14.1444 4.19129 13.1C3.1744 12.0556 2.66618 10.7556 2.66663 9.2C2.66663 8.08889 3.1084 6.88044 3.99196 5.57467C4.87552 4.26889 6.21151 2.85511 7.99996 1.33333C9.78885 2.85555 11.1251 4.26955 12.0086 5.57533C12.8922 6.88111 13.3337 8.08933 13.3333 9.2C13.3333 10.7556 12.8248 12.0556 11.808 13.1C10.7911 14.1444 9.52174 14.6667 7.99996 14.6667ZM7.99996 13.3333C9.15552 13.3333 10.1111 12.9416 10.8666 12.158C11.6222 11.3744 12 10.3884 12 9.2C12 8.38889 11.6637 7.47222 10.9913 6.45C10.3188 5.42778 9.32174 4.31111 7.99996 3.1C6.67774 4.31111 5.68063 5.42778 5.00863 6.45C4.33663 7.47222 4.0004 8.38889 3.99996 9.2C3.99996 10.3889 4.37774 11.3751 5.13329 12.1587C5.88885 12.9422 6.8444 13.3338 7.99996 13.3333Z" fill="#E7E7E7"/>
</svg>
