<svg width="16" height="16" viewBox="0 0 16 16" fill="none" xmlns="http://www.w3.org/2000/svg">
<g clip-path="url(#clip0_23_36)">
<path d="M1.33338 3V0.999999C1.33338 0.633332 1.46404 0.319332 1.72538 0.0579985C1.98671 -0.203335 2.30049 -0.333779 2.66671 -0.333335H13.3334C13.7 -0.333335 14.014 -0.202668 14.2754 0.0586651C14.5367 0.319998 14.6672 0.633776 14.6667 0.999999V4.66667H13.3334V0.999999H2.66671V3H1.33338ZM4.66671 8.33333C4.54449 8.33333 4.42782 8.30267 4.31671 8.24133C4.2056 8.18 4.12226 8.08844 4.06671 7.96667L2.91671 5.66667H1.33338V4.33333H3.33338C3.4556 4.33333 3.57226 4.364 3.68338 4.42533C3.79449 4.48667 3.87782 4.57822 3.93338 4.7L4.66671 6.16667L6.73338 2.03333C6.78893 1.92222 6.87226 1.83889 6.98338 1.78333C7.09449 1.72778 7.21115 1.7 7.33338 1.7C7.4556 1.7 7.57226 1.72778 7.68338 1.78333C7.79449 1.83889 7.87782 1.92222 7.93338 2.03333L9.05004 4.26667C8.85004 4.38889 8.65849 4.51667 8.47538 4.65C8.29226 4.78333 8.12271 4.93333 7.96671 5.1L7.33338 3.83333L5.26671 7.96667C5.21115 8.08889 5.12782 8.18067 5.01671 8.242C4.9056 8.30333 4.78893 8.33378 4.66671 8.33333ZM7.11671 10.3333H2.66671C2.30004 10.3333 1.98604 10.2027 1.72471 9.94133C1.46338 9.68 1.33293 9.36622 1.33338 9V7H2.66671V9H6.71671C6.75004 9.23333 6.80004 9.46111 6.86671 9.68333C6.93338 9.90555 7.01671 10.1222 7.11671 10.3333ZM11.3334 11.6667C10.4112 11.6667 9.62493 11.3416 8.97471 10.6913C8.32449 10.0411 7.9996 9.25511 8.00004 8.33333C8.00004 7.41111 8.32515 6.62489 8.97538 5.97467C9.6256 5.32444 10.4116 4.99955 11.3334 5C12.2556 5 13.0418 5.32511 13.692 5.97533C14.3423 6.62555 14.6672 7.41155 14.6667 8.33333C14.6667 9.25555 14.3416 10.0418 13.6914 10.692C13.0412 11.3422 12.2552 11.6671 11.3334 11.6667ZM11.4667 8.66667L12.9834 7.15L12.5167 6.68333L11 8.2L11.4667 8.66667Z" fill="#E7E7E7"/>
</g>
<defs>
<clipPath id="clip0_23_36">
<rect width="16" height="16" fill="white"/>
</clipPath>
</defs>
</svg>
