<svg width="14" height="14" viewBox="0 0 14 14" fill="none" xmlns="http://www.w3.org/2000/svg">
<g clip-path="url(#clip0_23_27)">
<path d="M11.375 13.125H9.625C9.39315 13.1243 9.17099 13.0319 9.00705 12.868C8.8431 12.704 8.7507 12.4819 8.75 12.25V9.1875C8.51815 9.18681 8.29599 9.0944 8.13205 8.93046C7.9681 8.76651 7.8757 8.54435 7.875 8.3125V5.6875C7.8718 5.51426 7.90356 5.34215 7.96838 5.18146C8.03321 5.02077 8.12976 4.8748 8.25229 4.75228C8.37481 4.62976 8.52078 4.5332 8.68146 4.46838C8.84215 4.40355 9.01426 4.3718 9.1875 4.375H11.8125C11.9857 4.3718 12.1579 4.40355 12.3185 4.46838C12.4792 4.5332 12.6252 4.62976 12.7477 4.75228C12.8702 4.8748 12.9668 5.02077 13.0316 5.18146C13.0964 5.34215 13.1282 5.51426 13.125 5.6875V8.3125C13.1243 8.54435 13.0319 8.76651 12.868 8.93046C12.704 9.0944 12.4819 9.18681 12.25 9.1875V12.25C12.2493 12.4819 12.1569 12.704 11.993 12.868C11.829 13.0319 11.6069 13.1243 11.375 13.125ZM9.1875 5.25C9.12914 5.24649 9.07069 5.2554 9.01602 5.27615C8.96135 5.2969 8.9117 5.329 8.87035 5.37035C8.829 5.4117 8.7969 5.46134 8.77615 5.51601C8.75541 5.57068 8.74649 5.62913 8.75 5.6875V8.3125H9.625V12.25H11.375V8.3125H12.25V5.6875C12.2535 5.62913 12.2446 5.57068 12.2239 5.51601C12.2031 5.46134 12.171 5.4117 12.1297 5.37035C12.0883 5.329 12.0387 5.2969 11.984 5.27615C11.9293 5.2554 11.8709 5.24649 11.8125 5.25H9.1875ZM10.5 3.9375C10.1539 3.9375 9.81554 3.83487 9.52776 3.64257C9.23997 3.45028 9.01567 3.17697 8.88321 2.8572C8.75076 2.53743 8.7161 2.18556 8.78363 1.84609C8.85115 1.50663 9.01783 1.19481 9.26257 0.950064C9.50731 0.705322 9.81913 0.538651 10.1586 0.471127C10.4981 0.403602 10.8499 0.438258 11.1697 0.570712C11.4895 0.703165 11.7628 0.927467 11.9551 1.21525C12.1474 1.50304 12.25 1.84138 12.25 2.1875C12.2486 2.6512 12.0638 3.09552 11.7359 3.42341C11.408 3.7513 10.9637 3.93612 10.5 3.9375ZM10.5 1.3125C10.3269 1.3125 10.1578 1.36382 10.0139 1.45996C9.86999 1.55611 9.75783 1.69277 9.69161 1.85265C9.62538 2.01254 9.60805 2.18847 9.64182 2.3582C9.67558 2.52794 9.75891 2.68385 9.88128 2.80622C10.0037 2.92859 10.1596 3.01193 10.3293 3.04569C10.499 3.07945 10.675 3.06212 10.8349 2.9959C10.9947 2.92967 11.1314 2.81752 11.2275 2.67362C11.3237 2.52973 11.375 2.36056 11.375 2.1875C11.3743 1.95565 11.2819 1.73349 11.118 1.56955C10.954 1.4056 10.7319 1.31319 10.5 1.3125ZM4.375 8.8305V5.25H3.5V8.8305C3.2081 8.93371 2.96207 9.13678 2.80541 9.40384C2.64876 9.67089 2.59155 9.98473 2.6439 10.2899C2.69626 10.595 2.85481 10.8719 3.09153 11.0714C3.32824 11.271 3.62789 11.3804 3.9375 11.3804C4.24712 11.3804 4.54676 11.271 4.78348 11.0714C5.0202 10.8719 5.17874 10.595 5.2311 10.2899C5.28346 9.98473 5.22625 9.67089 5.06959 9.40384C4.91293 9.13678 4.66691 8.93371 4.375 8.8305Z" fill="#E7E7E7"/>
<path d="M3.93751 13.125C3.33463 13.1257 2.74498 12.9482 2.24261 12.6149C1.74025 12.2816 1.34755 11.8073 1.11385 11.2515C0.880148 10.6958 0.81585 10.0834 0.929032 9.49121C1.04221 8.89904 1.32783 8.35351 1.75001 7.92313V3.0625C1.75001 2.48234 1.98048 1.92594 2.39072 1.5157C2.80095 1.10547 3.35735 0.875 3.93751 0.875C4.51768 0.875 5.07407 1.10547 5.48431 1.5157C5.89455 1.92594 6.12501 2.48234 6.12501 3.0625V7.92313C6.5472 8.35351 6.83282 8.89904 6.946 9.49121C7.05918 10.0834 6.99488 10.6958 6.76118 11.2515C6.52747 11.8073 6.13478 12.2816 5.63242 12.6149C5.13005 12.9482 4.5404 13.1257 3.93751 13.125ZM3.93751 1.75C3.58952 1.75035 3.25589 1.88874 3.00982 2.13481C2.76375 2.38087 2.62536 2.71451 2.62501 3.0625V8.30506L2.47976 8.43587C2.1494 8.73115 1.91649 9.11979 1.81187 9.55035C1.70725 9.98091 1.73584 10.4331 1.89387 10.847C2.0519 11.261 2.33192 11.6172 2.69685 11.8685C3.06178 12.1198 3.49442 12.2544 3.93751 12.2544C4.3806 12.2544 4.81325 12.1198 5.17818 11.8685C5.54311 11.6172 5.82313 11.261 5.98116 10.847C6.13919 10.4331 6.16778 9.98091 6.06316 9.55035C5.95854 9.11979 5.72563 8.73115 5.39526 8.43587L5.25001 8.30506V3.0625C5.24967 2.71451 5.11127 2.38087 4.86521 2.13481C4.61914 1.88874 4.2855 1.75035 3.93751 1.75Z" fill="#E7E7E7"/>
</g>
<defs>
<clipPath id="clip0_23_27">
<rect width="14" height="14" fill="white"/>
</clipPath>
</defs>
</svg>
