<svg width="16" height="16" viewBox="0 0 16 16" fill="none" xmlns="http://www.w3.org/2000/svg">
<g clip-path="url(#clip0_23_30)">
<path d="M8.00003 3.66667C8.70223 3.66657 9.39208 3.85132 10.0002 4.20235C10.6084 4.55339 11.1134 5.05833 11.4646 5.66642C11.8157 6.27452 12.0006 6.96433 12.0006 7.66653C12.0006 8.36872 11.8158 9.05855 11.4647 9.66667H13.3334C13.5102 9.66667 13.6797 9.7369 13.8048 9.86193C13.9298 9.98695 14 10.1565 14 10.3333C14 10.5101 13.9298 10.6797 13.8048 10.8047C13.6797 10.9298 13.5102 11 13.3334 11H2.6667C2.48989 11 2.32032 10.9298 2.1953 10.8047C2.07027 10.6797 2.00003 10.5101 2.00003 10.3333C2.00003 10.1565 2.07027 9.98695 2.1953 9.86193C2.32032 9.7369 2.48989 9.66667 2.6667 9.66667H4.53537C4.18427 9.05855 3.99944 8.36872 3.99947 7.66653C3.99949 6.96433 4.18437 6.27452 4.53551 5.66642C4.88665 5.05833 5.39168 4.55339 5.99984 4.20235C6.60799 3.85132 7.29784 3.66657 8.00003 3.66667ZM8.00003 5C7.47094 4.99996 6.9538 5.15731 6.5144 5.45204C6.07499 5.74677 5.73319 6.16554 5.53249 6.65509C5.33178 7.14463 5.28124 7.68282 5.38729 8.20117C5.49334 8.71953 5.75119 9.19462 6.12804 9.566L6.2367 9.666H9.76337C10.1693 9.3077 10.4566 8.83431 10.587 8.30878C10.7174 7.78325 10.6847 7.23048 10.4933 6.72397C10.3018 6.21747 9.96078 5.78124 9.51542 5.47329C9.07006 5.16533 8.5415 5.00026 8.00003 5ZM14 7C14.17 7.00019 14.3334 7.06525 14.4569 7.1819C14.5805 7.29854 14.6549 7.45797 14.6648 7.6276C14.6748 7.79722 14.6196 7.96425 14.5105 8.09455C14.4015 8.22486 14.2468 8.3086 14.078 8.32867L14 8.33333H13.3334C13.1634 8.33315 13 8.26808 12.8765 8.15143C12.7529 8.03479 12.6785 7.87537 12.6686 7.70574C12.6586 7.53611 12.7138 7.36908 12.8229 7.23878C12.9319 7.10848 13.0866 7.02474 13.2554 7.00467L13.3334 7H14ZM2.6667 7C2.83662 7.00019 3.00006 7.06525 3.12361 7.1819C3.24717 7.29854 3.32152 7.45797 3.33148 7.6276C3.34144 7.79722 3.28625 7.96425 3.17719 8.09455C3.06813 8.22486 2.91343 8.3086 2.7447 8.32867L2.6667 8.33333H2.00003C1.83011 8.33315 1.66668 8.26808 1.54312 8.15143C1.41956 8.03479 1.34521 7.87537 1.33525 7.70574C1.3253 7.53611 1.38048 7.36908 1.48954 7.23878C1.5986 7.10848 1.7533 7.02474 1.92203 7.00467L2.00003 7H2.6667ZM4.2287 2.95267L4.70003 3.424C4.82147 3.54973 4.88867 3.71814 4.88715 3.89293C4.88563 4.06773 4.81552 4.23494 4.69191 4.35855C4.56831 4.48215 4.4011 4.55226 4.2263 4.55378C4.0515 4.5553 3.8831 4.48811 3.75737 4.36667L3.28603 3.89533C3.1646 3.7696 3.0974 3.6012 3.09892 3.4264C3.10044 3.2516 3.17055 3.08439 3.29416 2.96079C3.41776 2.83718 3.58497 2.76707 3.75977 2.76555C3.93457 2.76403 4.10297 2.83123 4.2287 2.95267ZM11.7714 2.95267C11.8913 2.8331 12.0523 2.76368 12.2216 2.75851C12.3909 2.75335 12.5558 2.81281 12.6829 2.92483C12.8099 3.03686 12.8896 3.19303 12.9056 3.36165C12.9217 3.53027 12.873 3.69867 12.7694 3.83267L12.714 3.89533L12.2427 4.36667C12.1227 4.48623 11.9617 4.55565 11.7924 4.56082C11.6231 4.56599 11.4582 4.50652 11.3312 4.3945C11.2041 4.28248 11.1245 4.1263 11.1084 3.95768C11.0924 3.78907 11.1411 3.62066 11.2447 3.48667L11.3 3.424L11.7714 2.95267ZM8.00003 -1.74733C8.16343 -1.74729 8.32111 -1.68725 8.44315 -1.57861C8.56519 -1.46996 8.64308 -1.32029 8.66203 -1.158L8.6667 -1.08V0.724L8.9427 0.447333C9.0624 0.326497 9.22375 0.255978 9.39373 0.250211C9.56372 0.244444 9.72948 0.303864 9.85709 0.41631C9.9847 0.528756 10.0645 0.685723 10.0802 0.855083C10.0958 1.02444 10.0462 1.19339 9.94137 1.32733L9.88537 1.39067L8.47203 2.80467C8.35724 2.91945 8.20451 2.98841 8.04249 2.99859C7.88047 3.00878 7.7203 2.9595 7.59203 2.86L7.5287 2.80467L6.1147 1.39067C5.99387 1.27097 5.92335 1.10962 5.91758 0.939635C5.91181 0.76965 5.97123 0.603889 6.08368 0.47628C6.19612 0.348671 6.35309 0.268865 6.52245 0.253197C6.69181 0.23753 6.86075 0.287185 6.9947 0.392L7.05737 0.447333L7.33337 0.724V-1.08C7.33337 -1.25681 7.40361 -1.42638 7.52863 -1.5514C7.65365 -1.67643 7.82322 -1.74667 8.00003 -1.74667V-1.74733Z" fill="#E7E7E7"/>
</g>
<defs>
<clipPath id="clip0_23_30">
<rect width="16" height="16" fill="white"/>
</clipPath>
</defs>
</svg>
