<svg width="16" height="16" viewBox="0 0 16 16" fill="none" xmlns="http://www.w3.org/2000/svg">
<path fill-rule="evenodd" clip-rule="evenodd" d="M7.00004 2.66667C6.7696 2.66659 6.54621 2.7461 6.36764 2.89175C6.18907 3.0374 6.06628 3.24025 6.02004 3.466C6.00257 3.5518 5.96838 3.63331 5.91941 3.7059C5.87044 3.77848 5.80766 3.8407 5.73464 3.88902C5.66162 3.93734 5.5798 3.9708 5.49385 3.9875C5.4079 4.0042 5.3195 4.0038 5.23371 3.98633C5.14791 3.96887 5.06639 3.93467 4.99381 3.8857C4.92123 3.83674 4.859 3.77395 4.81069 3.70093C4.76237 3.62791 4.72891 3.54609 4.71221 3.46014C4.69551 3.37419 4.69591 3.2858 4.71337 3.2C4.80167 2.76744 5.01087 2.3688 5.31668 2.05039C5.62249 1.73198 6.01236 1.50686 6.441 1.40118C6.86965 1.29549 7.31948 1.31358 7.73825 1.45335C8.15702 1.59311 8.52755 1.84881 8.80681 2.19075C9.08606 2.53269 9.26257 2.94684 9.31585 3.3851C9.36912 3.82335 9.29697 4.26773 9.10778 4.66661C8.91858 5.0655 8.6201 5.40253 8.24701 5.63855C7.87392 5.87457 7.44152 5.99991 7.00004 6H3.33337C3.15656 6 2.98699 5.92976 2.86197 5.80474C2.73695 5.67971 2.66671 5.51014 2.66671 5.33333C2.66671 5.15652 2.73695 4.98695 2.86197 4.86193C2.98699 4.73691 3.15656 4.66667 3.33337 4.66667H7.00004C7.26526 4.66667 7.51961 4.56131 7.70715 4.37377C7.89468 4.18624 8.00004 3.93188 8.00004 3.66667C8.00004 3.40145 7.89468 3.1471 7.70715 2.95956C7.51961 2.77202 7.26526 2.66667 7.00004 2.66667ZM12.3334 5.33333C12.1029 5.33326 11.8795 5.41276 11.701 5.55841C11.5224 5.70406 11.3996 5.90692 11.3534 6.13267C11.336 6.21846 11.3018 6.29999 11.2529 6.37259C11.2039 6.44519 11.1412 6.50744 11.0682 6.55579C10.9952 6.60414 10.9134 6.63763 10.8275 6.65437C10.7416 6.67111 10.6532 6.67076 10.5674 6.65333C10.4816 6.63591 10.4001 6.60176 10.3275 6.55283C10.2549 6.5039 10.1926 6.44115 10.1443 6.36817C10.0959 6.29518 10.0624 6.21339 10.0457 6.12745C10.0289 6.04152 10.0293 5.95313 10.0467 5.86733C10.1349 5.43471 10.344 5.03599 10.6497 4.71748C10.9555 4.39896 11.3454 4.17374 11.774 4.06796C12.2027 3.96218 12.6525 3.98019 13.0714 4.1199C13.4902 4.2596 13.8608 4.51527 14.1401 4.85721C14.4194 5.19914 14.596 5.61331 14.6493 6.05159C14.7026 6.48988 14.6305 6.93429 14.4413 7.33322C14.2521 7.73214 13.9536 8.0692 13.5805 8.30523C13.2073 8.54127 12.7749 8.6666 12.3334 8.66667H2.00004C1.82323 8.66667 1.65366 8.59643 1.52864 8.4714C1.40361 8.34638 1.33337 8.17681 1.33337 8C1.33337 7.82319 1.40361 7.65362 1.52864 7.5286C1.65366 7.40357 1.82323 7.33333 2.00004 7.33333H12.3334C12.5986 7.33333 12.8529 7.22798 13.0405 7.04044C13.228 6.8529 13.3334 6.59855 13.3334 6.33333C13.3334 6.06812 13.228 5.81376 13.0405 5.62623C12.8529 5.43869 12.5986 5.33333 12.3334 5.33333ZM8.68671 12.534C8.72467 12.7193 8.81442 12.8901 8.94553 13.0264C9.07665 13.1628 9.24375 13.2592 9.42745 13.3044C9.61114 13.3496 9.80388 13.3417 9.9833 13.2818C10.1627 13.2218 10.3215 13.1122 10.4411 12.9657C10.5607 12.8191 10.6363 12.6416 10.6591 12.4538C10.6819 12.266 10.6509 12.0756 10.5699 11.9047C10.4888 11.7338 10.3609 11.5894 10.201 11.4883C10.0412 11.3871 9.85588 11.3334 9.66671 11.3333H5.33337C5.15656 11.3333 4.98699 11.2631 4.86197 11.1381C4.73695 11.013 4.66671 10.8435 4.66671 10.6667C4.66671 10.4899 4.73695 10.3203 4.86197 10.1953C4.98699 10.0702 5.15656 10 5.33337 10H9.66671C10.1082 10.0001 10.5407 10.1254 10.9138 10.3614C11.2869 10.5975 11.5854 10.9345 11.7746 11.3334C11.9638 11.7324 12.0359 12.1768 11.9826 12.6151C11.9293 13.0534 11.7528 13.4675 11.4734 13.8095C11.1941 14.1514 10.8235 14.4071 10.4047 14.5468C9.98587 14.6865 9.536 14.7045 9.10734 14.5987C8.67868 14.4929 8.28884 14.2677 7.98308 13.9492C7.67733 13.6307 7.46822 13.232 7.38004 12.7993C7.34486 12.6261 7.37994 12.4459 7.47759 12.2985C7.57523 12.1511 7.72743 12.0485 7.90071 12.0133C8.07398 11.9781 8.25414 12.0132 8.40154 12.1109C8.54894 12.2085 8.65152 12.3607 8.68671 12.534Z" fill="#E7E7E7"/>
</svg>
